<?xml version="1.0" encoding="UTF-8" standalone="no"?>
<!-- Uploaded to: SVG Repo, www.svgrepo.com, Generator: SVG Repo Mixer Tools -->

<svg
   width="128"
   height="128"
   viewBox="0 0 3.84 3.84"
   version="1.1"
   id="svg1"
   sodipodi:docname="plugin-icon.svg"
   xml:space="preserve"
   inkscape:version="1.3 (0e150ed6c4, 2023-07-21)"
   xmlns:inkscape="http://www.inkscape.org/namespaces/inkscape"
   xmlns:sodipodi="http://sodipodi.sourceforge.net/DTD/sodipodi-0.dtd"
   xmlns="http://www.w3.org/2000/svg"
   xmlns:svg="http://www.w3.org/2000/svg"
   xmlns:rdf="http://www.w3.org/1999/02/22-rdf-syntax-ns#"
   xmlns:cc="http://creativecommons.org/ns#"
   xmlns:dc="http://purl.org/dc/elements/1.1/"><defs
     id="defs1" /><sodipodi:namedview
     id="namedview1"
     pagecolor="#ffffff"
     bordercolor="#000000"
     borderopacity="0.25"
     inkscape:showpageshadow="2"
     inkscape:pageopacity="0.0"
     inkscape:pagecheckerboard="0"
     inkscape:deskcolor="#d1d1d1"
     inkscape:zoom="1.475"
     inkscape:cx="80"
     inkscape:cy="84.745763"
     inkscape:window-width="2560"
     inkscape:window-height="1351"
     inkscape:window-x="3191"
     inkscape:window-y="-9"
     inkscape:window-maximized="1"
     inkscape:current-layer="Device" /><title
     id="title1">plugin_fill</title><circle
     style="stroke-width:1.55625;fill:#4f69d3;fill-opacity:1"
     id="path1"
     cx="12"
     cy="12"
     r="12"
     transform="scale(0.16)" /><g
     id="页面-1"
     stroke="none"
     stroke-width="1"
     fill="none"
     fill-rule="evenodd"
     inkscape:label="group"><g
       id="Device"
       transform="translate(-384,-240)"
       fill-rule="nonzero"><g
         id="plugin_fill"
         transform="matrix(0.16,0,0,0.16,384,240)"
         style="stroke-width:6.25"><path
           d="M 24,0 V 24 H 0 V 0 Z m -11.40651,23.257841 -0.01155,0.0017 -0.07106,0.03553 -0.019,0.0037 v 0 l -0.01516,-0.0037 -0.07106,-0.03553 c -0.0098,-0.0031 -0.01861,-4.89e-4 -0.02351,0.0054 l -0.0041,0.01092 -0.01709,0.427279 0.005,0.02039 0.01101,0.01222 0.103573,0.07398 0.01487,0.0039 v 0 l 0.01177,-0.0039 0.103575,-0.07398 0.0126,-0.01604 v 0 l 0.0034,-0.01656 -0.01709,-0.427279 c -0.002,-0.01013 -0.0085,-0.01653 -0.01607,-0.01799 z m 0.264901,-0.112555 -0.01384,0.002 -0.184705,0.09235 -0.01,0.01024 v 0 l -0.0027,0.01121 0.0179,0.429528 0.0048,0.01278 v 0 l 0.0085,0.0071 0.200954,0.09275 c 0.01209,0.0037 0.02289,-2.52e-4 0.02849,-0.008 l 0.004,-0.01406 -0.03415,-0.614631 c -0.0024,-0.01194 -0.01027,-0.01953 -0.01929,-0.02125 z m -0.715344,0.002 c -0.0098,-0.0049 -0.02087,-0.002 -0.02741,0.0053 l -0.0057,0.01394 -0.03415,0.614631 c -6.39e-4,0.0115 0.007,0.0207 0.01688,0.0234 l 0.01561,-0.0013 0.200955,-0.09275 0.0094,-0.0081 v 0 l 0.0039,-0.0118 0.0179,-0.429528 -0.0032,-0.01259 v 0 l -0.0095,-0.0089 z"
           id="MingCute"
           fill-rule="nonzero"
           style="stroke-width:6.25" /><path
           d="m 14.542373,18.779661 c 0.468051,0 0.847458,0.379407 0.847458,0.847458 0,0.468051 -0.379407,0.847457 -0.847458,0.847457 H 9.4576272 c -0.4680339,0 -0.8474577,-0.379406 -0.8474577,-0.847457 0,-0.468051 0.3794238,-0.847458 0.8474577,-0.847458 z m 0,-15.2542372 c 0.434619,0 0.792804,0.3271561 0.841757,0.7486269 l 0.0057,0.098831 v 3.1779661 h 0.741525 c 0.893552,0 1.625566,0.6914214 1.690266,1.5684217 l 0.0046,0.1264936 v 3.6016949 c 0,2.744397 -1.220833,4.980992 -3.94073,5.081238 l -0.190626,0.0035 h -3.38983 c -2.7444056,0 -4.0276034,-2.174222 -4.1278489,-4.89412 l -0.00351,-0.190625 V 9.2457628 c 0,-0.8935274 0.6914214,-1.6255638 1.5684217,-1.6902664 l 0.1264935,-0.00465 h 0.7415782 v -3.177965 c 0,-0.4680339 0.3794238,-0.8474576 0.8474577,-0.8474576 0.4346029,0 0.7928018,0.3271561 0.8417558,0.7486269 l 0.0057,0.098831 v 3.1779661 h 3.38983 V 4.3728814 c 0,-0.4680339 0.379407,-0.8474576 0.847458,-0.8474576 z"
           id="形状"
           fill="#09244b"
           style="fill:#ffffff;fill-opacity:1;stroke-width:6.25"
           sodipodi:nodetypes="sssssssscccsccsccsccscccssccccss" /></g></g></g><metadata
     id="metadata1"><rdf:RDF><cc:Work
         rdf:about=""><dc:title>plugin_fill</dc:title></cc:Work></rdf:RDF></metadata></svg>
